<?xml version="1.0" encoding="utf-8"?>
<!-- Generator: Adobe Illustrator 23.0.1, SVG Export Plug-In . SVG Version: 6.00 Build 0)  -->
<svg version="1.1" id="Layer_1" xmlns="http://www.w3.org/2000/svg" xmlns:xlink="http://www.w3.org/1999/xlink" x="0px" y="0px"
	 viewBox="0 0 256 256" style="enable-background:new 0 0 256 256;" xml:space="preserve">
<style type="text/css">
	.st0{fill:#C1BFBF;}
	.st1{fill:url(#SVGID_1_);}
	.st2{fill:#1A94D1;}
	.st3{fill:#FFFFFF;}
	.st4{fill:#1795D2;}
</style>
<g>
	<path class="st0" d="M250.92,250.63c0,1.72-1.4,3.12-3.12,3.12H11.18c-1.72,0-3.12-1.4-3.12-3.12V8.35c0-1.72,1.4-3.12,3.12-3.12
		H247.8c1.72,0,3.12,1.4,3.12,3.12V250.63z"/>
	
		<linearGradient id="SVGID_1_" gradientUnits="userSpaceOnUse" x1="-276" y1="6.507053e-07" x2="-275" y2="6.507053e-07" gradientTransform="matrix(1.723048e-14 281.3951 281.3951 -1.723048e-14 126.5101 77649.2812)">
		<stop  offset="0" style="stop-color:#24314C"/>
		<stop  offset="1" style="stop-color:#373737"/>
	</linearGradient>
	<path class="st1" d="M247.94,247.65c0,1.72-1.4,3.12-3.12,3.12H8.2c-1.72,0-3.12-1.4-3.12-3.12V5.37c0-1.72,1.4-3.12,3.12-3.12
		h236.61c1.72,0,3.12,1.4,3.12,3.12V247.65z"/>
	<path class="st2" d="M54.55,101.61c1.72-0.13,3.32-0.51,4.8-1.14c1.49-0.63,2.71-1.54,3.66-2.73c0.96-1.19,1.43-2.78,1.43-4.77
		c0-2.98-0.99-5.26-2.96-6.85c-1.98-1.59-4.25-2.38-6.81-2.38c-3.56,0-6.24,1.17-8.05,3.51c-1.81,2.34-2.68,5.3-2.62,8.86h-13.4
		c0.13-3.56,0.78-6.81,1.93-9.75c1.16-2.93,2.77-5.45,4.86-7.55c2.08-2.1,4.57-3.72,7.48-4.87c2.9-1.15,6.14-1.72,9.71-1.72
		c2.77,0,5.55,0.41,8.32,1.24c2.78,0.83,5.27,2.06,7.48,3.72c2.21,1.65,4.01,3.66,5.4,6.04c1.39,2.38,2.08,5.12,2.08,8.22
		c0,3.37-0.81,6.34-2.42,8.92c-1.61,2.58-4.02,4.32-7.24,5.25v0.2c3.82,0.86,6.81,2.71,8.98,5.55c2.17,2.84,3.26,6.24,3.26,10.2
		c0,3.63-0.71,6.87-2.13,9.71c-1.42,2.84-3.32,5.22-5.7,7.13c-2.38,1.91-5.12,3.37-8.23,4.36c-3.11,0.99-6.35,1.48-9.71,1.48
		c-3.9,0-7.45-0.56-10.66-1.68c-3.21-1.13-5.93-2.76-8.18-4.92c-2.25-2.15-3.98-4.78-5.2-7.88c-1.23-3.1-1.8-6.67-1.74-10.69h13.4
		c0.06,1.85,0.36,3.61,0.89,5.29c0.53,1.68,1.29,3.14,2.29,4.36c0.99,1.22,2.23,2.2,3.72,2.92c1.49,0.72,3.26,1.09,5.31,1.09
		c3.18,0,5.86-0.97,8.05-2.91c2.19-1.94,3.28-4.59,3.28-7.95c0-2.64-0.53-4.65-1.58-6.03c-1.05-1.38-2.37-2.39-3.96-3.01
		c-1.58-0.62-3.32-0.99-5.2-1.08c-1.88-0.1-3.68-0.15-5.39-0.15v-9.97C51.22,101.74,52.83,101.74,54.55,101.61z"/>
	<path class="st3" d="M121.22,81.21c7.84,0,15.6,3.17,21.3,8.7l1.52,1.47v-11.9l-0.38-0.27c-6.51-4.57-13.7-6.79-21.96-6.79
		c-21.15,0-38.36,16.19-38.36,36.09c0,19.6,17.21,35.55,38.36,35.55c7.72,0,15.51-2.41,21.95-6.78l0.39-0.27v-11.86l-1.51,1.42
		c-5.89,5.54-13.59,8.71-21.12,8.71c-15.33,0-28.27-12.38-28.27-27.04C93.14,93.6,106,81.21,121.22,81.21z"/>
	<polygon class="st4" points="144.17,94.68 144.17,122.33 156.26,107.93 	"/>
	<polygon class="st3" points="217.41,143.6 188.95,108.84 217.41,74.17 202.31,74.17 181.44,99.67 160.57,74.17 145.48,74.17 
		173.93,108.84 145.47,143.6 160.42,143.6 181.44,117.99 202.47,143.6 	"/>
	<path class="st3" d="M219.31,139.68c0-2.16,1.73-3.89,3.91-3.89c2.18,0,3.91,1.73,3.91,3.89s-1.72,3.89-3.91,3.89
		C221.04,143.57,219.31,141.85,219.31,139.68z M226.53,139.68c0-1.83-1.53-3.29-3.31-3.29s-3.31,1.46-3.31,3.29
		c0,1.83,1.53,3.29,3.31,3.29S226.53,141.52,226.53,139.68z M225.07,141.79h-0.72l-1.28-1.96h-0.72v1.96h-0.6v-4.26h1.85
		c0.77,0,1.51,0.21,1.51,1.13c0,0.84-0.59,1.15-1.35,1.17L225.07,141.79z M223.08,139.22c0.53,0,1.46,0.1,1.46-0.58
		c0-0.44-0.58-0.52-1.04-0.52h-1.14v1.1H223.08z"/>
	<path class="st3" d="M97.13,161.1l1.2,6.14c0.31,1.57,0.61,3.22,0.86,4.94h0.06c0.31-1.72,0.74-3.44,1.1-4.91l1.6-6.17h3.68
		l1.5,5.98c0.4,1.69,0.8,3.38,1.11,5.09h0.06c0.21-1.72,0.52-3.41,0.86-5.12l1.29-5.95h4.57l-4.6,15h-4.39l-1.41-5.28
		c-0.37-1.47-0.64-2.82-0.95-4.66h-0.06c-0.28,1.87-0.58,3.25-0.98,4.66l-1.5,5.28h-4.39l-4.36-15H97.13z"/>
	<path class="st3" d="M120.94,170.09c0.15,1.93,2.06,2.85,4.23,2.85c1.6,0,2.88-0.21,4.14-0.61l0.61,3.16
		c-1.53,0.61-3.41,0.92-5.43,0.92c-5.09,0-8.01-2.95-8.01-7.64c0-3.8,2.36-8.01,7.58-8.01c4.85,0,6.69,3.77,6.69,7.49
		c0,0.8-0.09,1.5-0.15,1.84H120.94z M126.43,166.9c0-1.13-0.49-3.04-2.64-3.04c-1.96,0-2.76,1.78-2.88,3.04H126.43z"/>
	<path class="st3" d="M134.04,176.1c0.06-0.98,0.12-2.79,0.12-4.48v-17.31h4.66v8.56h0.06c0.89-1.29,2.45-2.12,4.54-2.12
		c3.59,0,6.23,2.98,6.2,7.58c0,5.4-3.44,8.1-6.87,8.1c-1.75,0-3.44-0.64-4.51-2.42h-0.06L138,176.1H134.04z M138.83,169.72
		c0,0.31,0.03,0.58,0.09,0.83c0.31,1.26,1.38,2.21,2.73,2.21c1.99,0,3.22-1.53,3.22-4.23c0-2.33-1.04-4.17-3.22-4.17
		c-1.26,0-2.42,0.95-2.73,2.3c-0.06,0.28-0.09,0.55-0.09,0.86V169.72z"/>
	<path class="st3" d="M157.94,156.93c0,1.29-0.98,2.33-2.52,2.33c-1.47,0-2.45-1.04-2.42-2.33c-0.03-1.35,0.95-2.36,2.46-2.36
		C156.96,154.56,157.91,155.58,157.94,156.93z M153.12,176.1v-15h4.66v15H153.12z"/>
	<path class="st3" d="M162.14,165.89c0-1.87-0.06-3.47-0.12-4.79h4.05l0.21,2.06h0.09c0.61-0.95,2.15-2.39,4.63-2.39
		c3.07,0,5.37,2.03,5.37,6.44v8.9h-4.66v-8.32c0-1.93-0.67-3.25-2.36-3.25c-1.29,0-2.06,0.89-2.36,1.75
		c-0.12,0.28-0.18,0.74-0.18,1.17v8.65h-4.66V165.89z"/>
	<path class="st3" d="M189.26,176.1l-0.28-1.5h-0.09c-0.98,1.2-2.52,1.84-4.3,1.84c-3.04,0-4.85-2.21-4.85-4.6
		c0-3.9,3.5-5.77,8.81-5.74v-0.21c0-0.8-0.43-1.93-2.73-1.93c-1.53,0-3.16,0.52-4.14,1.14l-0.86-3.01c1.04-0.58,3.1-1.32,5.83-1.32
		c5,0,6.6,2.95,6.6,6.47v5.22c0,1.44,0.06,2.82,0.21,3.65H189.26z M188.71,169.02c-2.45-0.03-4.36,0.55-4.36,2.36
		c0,1.2,0.8,1.78,1.84,1.78c1.17,0,2.12-0.77,2.42-1.72c0.06-0.25,0.09-0.52,0.09-0.8V169.02z"/>
	<path class="st3" d="M197.55,166.04c0-2.21-0.06-3.65-0.12-4.94h4.02l0.15,2.76h0.12c0.77-2.18,2.61-3.1,4.05-3.1
		c0.43,0,0.64,0,0.98,0.06v4.39c-0.34-0.06-0.74-0.12-1.26-0.12c-1.72,0-2.88,0.92-3.19,2.36c-0.06,0.31-0.09,0.67-0.09,1.04v7.61
		h-4.66V166.04z"/>
	<path class="st3" d="M209.79,172.02c0.86,0.52,2.64,1.13,4.02,1.13c1.41,0,1.99-0.49,1.99-1.26c0-0.77-0.46-1.13-2.21-1.72
		c-3.1-1.04-4.3-2.73-4.27-4.51c0-2.79,2.39-4.91,6.11-4.91c1.75,0,3.31,0.4,4.23,0.86l-0.83,3.22c-0.68-0.37-1.96-0.86-3.25-0.86
		c-1.14,0-1.78,0.46-1.78,1.23c0,0.71,0.58,1.07,2.42,1.72c2.85,0.98,4.05,2.42,4.08,4.63c0,2.79-2.21,4.85-6.5,4.85
		c-1.96,0-3.71-0.43-4.85-1.04L209.79,172.02z"/>
</g>
</svg>
